<?xml version="1.0" standalone="no"?>
<!DOCTYPE svg PUBLIC "-//W3C//DTD SVG 20010904//EN"
 "http://www.w3.org/TR/2001/REC-SVG-20010904/DTD/svg10.dtd">
<svg version="1.0" xmlns="http://www.w3.org/2000/svg"
 width="700.000000pt" height="700.000000pt" viewBox="0 0 700.000000 700.000000"
 preserveAspectRatio="xMidYMid meet">
<metadata>
Created by potrace 1.11, written by Peter Selinger 2001-2013
</metadata>
<g transform="translate(0.000000,700.000000) scale(0.100000,-0.100000)"
fill="#000000" stroke="none">
<path d="M3338 6755 c-2 -1 -41 -5 -88 -9 -47 -3 -100 -8 -117 -11 -18 -3 -45
-7 -60 -9 -408 -60 -785 -196 -1136 -408 -487 -294 -891 -729 -1140 -1227 -75
-150 -85 -174 -135 -301 -92 -236 -166 -561 -187 -830 -8 -92 -8 -390 -1 -480
6 -77 17 -172 21 -190 2 -8 7 -42 11 -75 3 -33 8 -63 10 -66 2 -4 6 -24 10
-45 11 -71 64 -267 106 -389 169 -495 473 -948 874 -1302 33 -29 81 -69 109
-90 27 -21 59 -46 70 -56 11 -10 36 -28 55 -40 19 -11 37 -24 40 -27 7 -9 98
-70 104 -70 3 0 24 -13 48 -29 24 -16 79 -48 123 -72 298 -158 564 -253 894
-318 74 -15 136 -31 138 -37 2 -6 -8 -16 -21 -22 -54 -24 -78 -99 -51 -156 27
-56 58 -70 157 -72 47 -1 91 -5 96 -8 6 -4 18 -32 27 -63 21 -73 47 -122 77
-149 102 -93 274 -67 336 51 8 17 25 61 37 99 l21 69 95 1 c98 2 125 11 155
54 38 55 18 139 -44 175 l-34 20 29 12 c17 7 54 16 84 21 79 11 96 15 244 53
385 98 801 307 1110 555 216 174 400 363 554 571 44 61 86 115 91 122 6 7 10
15 10 18 0 3 18 31 39 63 48 69 166 296 217 412 77 180 170 476 190 609 3 20
9 54 14 76 5 22 12 69 15 105 4 36 8 71 10 77 17 51 23 431 11 588 -73 924
-578 1780 -1351 2292 -423 281 -869 439 -1400 499 -59 6 -461 14 -467 9z"/>
</g>
</svg>
